<mxfile host="Electron" modified="2024-09-15T09:36:29.394Z" agent="Mozilla/5.0 (X11; Linux x86_64) AppleWebKit/537.36 (KHTML, like Gecko) draw.io/21.6.1 Chrome/112.0.5615.204 Electron/24.6.1 Safari/537.36" etag="2loV3cXvI_UcLzbC3IN2" version="21.6.1" type="device">
  <diagram name="Page-1" id="ldF8nTovv0w0sQGAQ0tY">
    <mxGraphModel dx="1434" dy="805" grid="1" gridSize="10" guides="1" tooltips="1" connect="1" arrows="1" fold="1" page="1" pageScale="1" pageWidth="850" pageHeight="1100" math="0" shadow="0">
      <root>
        <mxCell id="0" />
        <mxCell id="1" parent="0" />
        <mxCell id="LiwiVFZDg_ao9uSwQYq_-4" value="" style="shape=image;verticalLabelPosition=bottom;labelBackgroundColor=default;verticalAlign=top;aspect=fixed;imageAspect=0;image=data:image/svg+xml,PHN2ZyB4bWxucz0iaHR0cDovL3d3dy53My5vcmcvMjAwMC9zdmciIHByZXNlcnZlQXNwZWN0UmF0aW89InhNaWRZTWlkIG1lZXQiIHZpZXdCb3g9IjI2Mi4xMjc4Njg2NTIzNDM3NSAzMDMuMTc3MzM3NjQ2NDg0NCA0OTEuNzQ0MjAxNjYwMTU2MjUgNDYzLjY3MjYzNzkzOTQ1MzEiIGhlaWdodD0iNDYzLjY3MjYzNzkzOTQ1MzEiIHdpZHRoPSI0OTEuNzQ0MjAxNjYwMTU2MjUiIHZlcnNpb249IjEuMCI+JiN4YTsmI3hhOzxnIHN0cm9rZT0ibm9uZSIgZmlsbD0iIzAwMDAwMCIgdHJhbnNmb3JtPSJ0cmFuc2xhdGUoMC4wMDAwMDAsMTAyNC4wMDAwMDApIHNjYWxlKDAuMTAwMDAwLC0wLjEwMDAwMCkiPiYjeGE7PHBhdGggZD0iTTMyNzAgNzE5OCBjLTI1MCAtMzUgLTQ2OCAtMTk2IC01NzYgLTQyMyAtNzQgLTE1NiAtNjggLTcgLTcyIC0xNzk1JiMxMDstMiAtMTEwNCAwIC0xNjM0IDggLTE2OTkgMjAgLTE4MCA4NyAtMzI0IDIwOCAtNDUzIDcwIC03NCAxNDggLTEzMiAyMTkgLTE2MyYjMTA7MjMgLTEwIDM5IC0yMyAzNiAtMjggLTQgLTYgMyAtOCAxNSAtNSAxMiA0IDIwIDMgMTcgLTEgLTYgLTEwIDcyIC0zNCA4NCAtMjYmIzEwOzUgMyAxMSAxIDEzIC01IDggLTI1IDE2MSAtMjkgNzY4IC0yMyA3NDMgOCA2ODcgOCAxODc4IDIgNTE5IC0yIDk0NiAtMSA5NDggMyYjMTA7MiA0IDE3IDYgMzIgNiAzMSAwIDg4IDEzIDE1MSAzNyAyNCA5IDQ2IDE0IDQ4IDExIDMgLTMgMTAgMCAxNyA1IDYgNiA0OSAzMSYjMTA7OTUgNTcgMTU4IDg4IDI5MSAyNjMgMzUzIDQ2MiBsMjMgNzUgMyAxNjI1IGMyIDExNjUgMCAxNjQ3IC04IDE3MDQgLTI0IDE2OCYjMTA7LTg2IDI5MyAtMjA1IDQxMiAtMTQxIDE0MiAtMjg3IDIwOSAtNDk0IDIyNSAtMTU0IDExIC0zNDc2IDkgLTM1NjEgLTN6IG0yMTc2JiMxMDstNDAxIGMxNjMgLTQ1IDI5NCAtMTg2IDMyNCAtMzQ5IDcgLTM2IDEwIC01NzAgOCAtMTU1OSBsLTMgLTE1MDQgLTIxIC02MiYjMTA7Yy0xMiAtMzQgLTMzIC04MiAtNDcgLTEwNSAtMzQgLTU4IC0xMjIgLTE0MCAtMTg1IC0xNzIgLTEwMCAtNTEgLTE0OCAtNTYmIzEwOy01MTkgLTU2IGwtMzQzIDAgMCAxNzMwIDAgMTczMCAtMTQ5IDAgLTE0OCAwIC0xNzQgMTc4IC0xNzQgMTc3IDM0NSA1IGM1NjUgOSYjMTA7MTAyNiAzIDEwODYgLTEzeiBtMTQyOSAtNyBjMTU2IC01NCAyNjUgLTE4MCAyOTUgLTM0MiA3IC0zNSA5IC02MDIgOCAtMTYyOSYjMTA7bC0zIC0xNTc0IC0yMiAtNDcgYy0zMCAtNjUgLTY5IC0xMTQgLTExOCAtMTQ4IC00MyAtMzAgLTEzMSAtNjAgLTE3NSAtNjAmIzEwO2wtMjcgMCAtNiAxOTcgYy00IDEwOCAtNyAyMzkgLTcgMjkyIGwwIDk2IC0yMzQgLTMgLTIzNSAtMyAtNSAtNTIgYy0zIC0yOSYjMTA7LTEzIC0xNDAgLTIxIC0yNDcgLTggLTEwNyAtMTggLTIxNCAtMjEgLTIzNyBsLTUgLTQzIC0xODAgMCBjLTE2NCAwIC0xNzkgMSYjMTA7LTE3OSAxOCAwIDkgOSAxNDggMTkgMzA3IDExIDE2MCAyMyAzNDAgMjYgNDAwIDMgNjEgMTcgMjcwIDMxIDQ2NSAxMyAxOTUgMjkmIzEwOzQzMiAzNSA1MjUgNSA5NCAxMyA1MTkgMTYgOTQ2IGw2IDc3NiAtMTg5IDE4OSAtMTg5IDE4OSA0MTUgNiBjNTc2IDggNjkwIDUmIzEwOzc2NSAtMjF6IG0tMzA0MiAwIGMxMjkgLTQwIDI0NyAtMTU4IDI4NyAtMjg3IDE5IC02MCAyMCAtOTkgMjEgLTczMSAxIC03MzQgMyYjMTA7LTcxMiAtNjEgLTgxMiAtMzcgLTU3IC05NyAtMTE0IC0xNDUgLTEzNyAtMTkgLTkgLTM1IC0yMiAtMzUgLTI5IDAgLTcgMTEgLTc3JiMxMDsyNSAtMTU2IDEyMSAtNzExIDIzNyAtMTQwNCAyNTUgLTE1MzMgNiAtNDQgMTMgLTg4IDE2IC05NyA1IC0xNyAtOCAtMTggLTE2OSYjMTA7LTE4IGwtMTc0IDAgLTE2IDc4IGMtMzQgMTYyIC0xNDkgODA2IC0yMjIgMTI0NyAtNDIgMjUyIC03OSA0NjMgLTgxIDQ2NyAtMyA0JiMxMDstNTAgOCAtMTA1IDggbC05OSAwIDAgLTkwMSAwIC05MDEgLTU3IDcgYy0xMTQgMTMgLTIxMSA4NSAtMjYxIDE5MyBsLTI3IDU3JiMxMDstMyAxNzgzIC0yIDE3ODIgMzk0IDAgYzM2NiAwIDM5OCAtMSA0NTkgLTIweiBtLTU0MCAtNDE5NyBjLTcgLTIgLTE5IC0yIC0yNSYjMTA7MCAtNyAzIC0yIDUgMTIgNSAxNCAwIDE5IC0yIDEzIC01eiBtNzQgLTkgYy0zIC0zIC0xMiAtNCAtMTkgLTEgLTggMyAtNSA2IDYmIzEwOzYgMTEgMSAxNyAtMiAxMyAtNXoiLz4mI3hhOzxwYXRoIGQ9Ik01MDIwIDQ5MTUgbDAgLTE1MzUgMTQ5IDAgYzEzNyAwIDE1MSAyIDE4MiAyMyAxOSAxMiA0MiAzOCA1MSA1NyAxNyYjMTA7MzMgMTggMTIzIDE4IDE0NjUgMCAxNDAxIDAgMTQzMSAtMjAgMTQ2MiAtMzMgNTUgLTYxIDYzIC0yMzAgNjMgbC0xNTAgMCAwJiMxMDstMTUzNXoiLz4mI3hhOzxwYXRoIGQ9Ik02NDIwIDU1NjggYzAgLTQ4NiAtNSAtOTY4IC0xMCAtMTA3MyAtMTIgLTIzNSAtMjggLTQ2OCAtMzYgLTUxNyYjMTA7bC02IC0zOCAyMjYgMCAyMjYgMCAwIDEyMjEgMCAxMjIxIC0zNCAzNCAtMzQgMzQgLTE2NiAwIC0xNjYgMCAwIC04ODJ6Ii8+JiN4YTs8cGF0aCBkPSJNMzMzMiA1Nzk4IGwzIC02NTMgMTgyIDAgYzE2OCAwIDE4NCAyIDIxMCAyMSA2NCA0NyA2MyAzNCA2MyA2MjcgMCYjMTA7NTgyIDAgNTc2IC01NCA2MjcgLTI3IDI1IC0zMSAyNSAtMjE3IDI4IGwtMTg5IDMgMiAtNjUzeiIvPiYjeGE7PHBhdGggZD0iTTQ4MzMgMjU3MyBjOSAtMiAyNSAtMiAzNSAwIDkgMyAxIDUgLTE4IDUgLTE5IDAgLTI3IC0yIC0xNyAtNXoiLz4mI3hhOzwvZz4mI3hhOzwvc3ZnPg==;imageBackground=none;" vertex="1" parent="1">
          <mxGeometry x="170" y="200" width="492" height="464" as="geometry" />
        </mxCell>
      </root>
    </mxGraphModel>
  </diagram>
</mxfile>
